<svg width="48" height="48" viewBox="0 0 48 48" fill="none" xmlns="http://www.w3.org/2000/svg">
<g clip-path="url(#clip0)">
<rect width="48" height="48" rx="8" fill="#EEEEEE"/>
<path d="M21.3827 50.4214C5.05866 48.0174 5.33333 31.6254 5.33333 26.6667H50.6667C50.6667 29.2187 50.7827 47.6934 33.1667 50.5574C30.444 51.0001 24.556 50.8894 21.3827 50.4214Z" fill="#292F33"/>
<path d="M48.5173 21.6628C51.8067 14.2308 37.4093 14.6574 33.804 15.8201C31.948 15.6041 30.0093 15.4814 28 15.4814C15.4813 15.4814 5.33335 19.7854 5.33335 26.7401C5.33335 28.0854 5.72135 29.3788 6.42401 30.5948C0.654679 38.2108 12.0853 39.6428 18.6693 38.2081C21.5173 38.9241 24.6693 39.3334 28 39.3334C40.5187 39.3334 50.6667 33.6948 50.6667 26.7414C50.6667 24.8348 49.8813 23.1361 48.5173 21.6628Z" fill="#66757F"/>
<path d="M28 37.3334C39.0457 37.3334 48 33.1547 48 28.0001C48 22.8454 39.0457 18.6667 28 18.6667C16.9543 18.6667 8 22.8454 8 28.0001C8 33.1547 16.9543 37.3334 28 37.3334Z" fill="#FFCC4D"/>
<path d="M9.33335 25.3333C8.61068 22.4413 12 17.3333 18.6667 18.6667C20 17.3333 22.4507 16 26.6667 16C29.3333 16 34.1493 18.3667 32 22.6667C30.6667 25.3333 25.3333 29.3333 18.6667 26.6667C17.3333 28 10.6667 30.6667 9.33335 25.3333Z" fill="#77B255"/>
<path d="M20 26.6666C19.668 26.7146 19.372 26.764 19.096 26.8146C25.56 29.1426 30.696 25.2746 32 22.6666C33.4373 19.792 31.7587 17.7866 29.692 16.7693C30.2173 19.1986 28.188 25.4973 20 26.6666Z" fill="#5C913B"/>
<path d="M10.6667 25.3333C11.3667 23.5826 17.3333 21.3333 24 29.3333C25.3333 30.6666 30.1147 31.4479 32 33.3333C33.3333 34.6666 32 35.9999 26.6667 35.9999C21.3333 35.9999 8.00001 31.9999 10.6667 25.3333Z" fill="#D99E82"/>
<path d="M12.0547 30.6907C15.452 34.0813 22.9747 36 26.6667 36C32 36 33.3333 34.6667 32 33.3333C31.5653 32.8987 30.9733 32.524 30.3093 32.1867C26.0373 34.4973 14.736 31.9947 12.0547 30.6907Z" fill="#B27962"/>
<path d="M40 29.3346C39.7213 29.3346 39.436 29.2892 39.156 29.1959L35.156 27.8626C33.7587 27.3959 33.004 25.8866 33.4693 24.4892C33.9347 23.0932 35.4413 22.3372 36.8427 22.8026L40.8427 24.1359C42.24 24.6026 42.9947 26.1119 42.5293 27.5092C42.1573 28.6279 41.1173 29.3346 40 29.3346ZM38.6667 33.3332H36C35.2627 33.3332 34.6667 32.7372 34.6667 31.9999C34.6667 31.2626 35.2627 30.6666 36 30.6666H38.6667C39.404 30.6666 40 31.2626 40 31.9999C40 32.7372 39.404 33.3332 38.6667 33.3332Z" fill="#FFE8B6"/>
</g>
<defs>
<clipPath id="clip0">
<rect width="48" height="48" rx="8" fill="white"/>
</clipPath>
</defs>
</svg>
