<svg width="48" height="48" viewBox="0 0 48 48" fill="none" xmlns="http://www.w3.org/2000/svg">
<g clip-path="url(#clip0)">
<rect width="48" height="48" rx="8" fill="#EEEEEE"/>
<g clip-path="url(#clip1)">
<path d="M47.7747 31.2334C46.856 35.5547 35.4947 39.5281 24.6893 37.2321C13.884 34.9361 5.12134 26.6841 6.04 22.3627C6.95867 18.0414 17.4893 17.9801 28.2933 20.2774C39.0973 22.5747 48.6933 26.9121 47.7747 31.2334Z" fill="#FFD983"/>
<path d="M40 52.0001L37.3333 33.3334L14.6667 26.6667L4 52.0001H40Z" fill="#FFD983"/>
<path d="M49.4791 29.6284C50.6359 24.1859 41.6473 17.664 29.4024 15.0613C17.1575 12.4585 6.29326 14.7606 5.13642 20.2031C3.97958 25.6456 12.9682 32.1675 25.2131 34.7703C37.458 37.373 48.3223 35.0709 49.4791 29.6284Z" fill="#67757F"/>
<path d="M4.552 18.636L5.104 21.7227L48.9253 31.0373L50.808 28.2027L4.552 18.636Z" fill="#67757F"/>
<path d="M51.4926 26.5726C52.7174 20.8102 43.2 13.9049 30.2348 11.1491C17.2696 8.39326 5.76633 10.8305 4.54152 16.5928C3.3167 22.3551 12.8341 29.2604 25.7993 32.0162C38.7645 34.7721 50.2678 32.3349 51.4926 26.5726Z" fill="#9AAAB4"/>
<path d="M48.1344 23.1339C49.053 18.8121 41.0391 13.447 30.2348 11.1505C19.4304 8.85392 9.92712 10.4957 9.00851 14.8174C8.0899 19.1391 16.1038 24.5043 26.9082 26.8008C37.7125 29.0973 47.2158 27.4556 48.1344 23.1339Z" fill="#CCD6DD"/>
<path d="M40.8629 18.8612C41.3222 16.7004 36.4393 13.8316 29.9567 12.4537C23.4741 11.0758 17.8466 11.7105 17.3873 13.8713C16.928 16.0322 21.8108 18.901 28.2934 20.2789C34.776 21.6568 40.4036 21.0221 40.8629 18.8612Z" fill="#E1E8ED"/>
<path d="M17.388 13.8694C17.8467 11.708 21.3827 7.90271 30.512 9.84271C39.6413 11.7827 41.3227 16.6974 40.864 18.8587C40.4053 21.02 34.7773 21.6547 28.2947 20.276C21.812 18.8974 16.928 16.0307 17.388 13.8694Z" fill="#5DADEC"/>
<path d="M26.3533 30.7399C27.0897 30.7399 27.6867 30.143 27.6867 29.4066C27.6867 28.6702 27.0897 28.0732 26.3533 28.0732C25.6169 28.0732 25.02 28.6702 25.02 29.4066C25.02 30.143 25.6169 30.7399 26.3533 30.7399Z" fill="#8CCAF7"/>
<path d="M37.064 31.6532C37.8004 31.6532 38.3973 31.0563 38.3973 30.3199C38.3973 29.5835 37.8004 28.9866 37.064 28.9866C36.3276 28.9866 35.7307 29.5835 35.7307 30.3199C35.7307 31.0563 36.3276 31.6532 37.064 31.6532Z" fill="#8CCAF7"/>
<path d="M47.0254 29.6813C47.7617 29.6813 48.3587 29.0844 48.3587 28.348C48.3587 27.6116 47.7617 27.0146 47.0254 27.0146C46.289 27.0146 45.692 27.6116 45.692 28.348C45.692 29.0844 46.289 29.6813 47.0254 29.6813Z" fill="#8CCAF7"/>
<path d="M7.91101 14.506C8.62167 14.3131 9.11958 13.8687 9.02311 13.5134C8.92665 13.158 8.27235 13.0264 7.56169 13.2193C6.85104 13.4122 6.35313 13.8567 6.44959 14.212C6.54605 14.5673 7.20035 14.699 7.91101 14.506Z" fill="#8CCAF7"/>
<path d="M7.89867 21.3639C8.63505 21.3639 9.23201 20.767 9.23201 20.0306C9.23201 19.2942 8.63505 18.6973 7.89867 18.6973C7.16229 18.6973 6.56534 19.2942 6.56534 20.0306C6.56534 20.767 7.16229 21.3639 7.89867 21.3639Z" fill="#8CCAF7"/>
<path d="M16.1973 27.2174C16.9337 27.2174 17.5307 26.6205 17.5307 25.8841C17.5307 25.1477 16.9337 24.5508 16.1973 24.5508C15.461 24.5508 14.864 25.1477 14.864 25.8841C14.864 26.6205 15.461 27.2174 16.1973 27.2174Z" fill="#8CCAF7"/>
<path d="M36.618 13.1874C36.8477 12.107 34.1143 10.6106 30.5129 9.84507C26.9114 9.07956 23.8057 9.33485 23.5761 10.4153C23.3464 11.4957 26.0798 12.9922 29.6812 13.7577C33.2827 14.5232 36.3884 14.2679 36.618 13.1874Z" fill="#8CCAF7"/>
</g>
</g>
<defs>
<clipPath id="clip0">
<rect width="48" height="48" rx="8" fill="white"/>
</clipPath>
<clipPath id="clip1">
<rect width="48" height="48" fill="white" transform="translate(4 4)"/>
</clipPath>
</defs>
</svg>
