<svg width="48" height="48" viewBox="0 0 48 48" fill="none" xmlns="http://www.w3.org/2000/svg">
<g clip-path="url(#clip0)">
<rect width="48" height="48" rx="8" fill="#EEEEEE"/>
<path d="M36 22.6667H20C20 22.6667 13.3333 30.6667 13.3333 36.0001C13.3333 41.3334 28 50.6667 28 50.6667C28 50.6667 42.6667 41.3334 42.6667 36.0001C42.6667 30.6667 36 22.6667 36 22.6667Z" fill="#31373D"/>
<path d="M30.1867 5.70669C28.9853 4.76802 27.0173 4.76802 25.816 5.70669L6.18533 21.0347C4.984 21.9734 4.984 23.5094 6.18533 24.448L25.8147 39.7747C27.0173 40.7134 28.984 40.7134 30.1853 39.7747L49.8147 24.448C51.0173 23.5094 51.0173 21.9734 49.8147 21.0347L30.1867 5.70669Z" fill="#292F33"/>
<path d="M30.1867 5.70669C28.9853 4.76802 27.0173 4.76802 25.816 5.70669L6.18533 21.0347C4.984 21.9734 4.984 23.5094 6.18533 24.448L25.8147 39.7747C27.016 40.7134 28.984 40.7134 30.1853 39.7747L49.816 24.448C51.0173 23.5094 51.0173 21.9734 49.816 21.0347L30.1867 5.70669Z" fill="#394146"/>
<path d="M14.6667 37.3333C14.6667 37.3333 12 39.9999 12 41.3333V49.3333C12 49.3333 12 51.9999 14.6667 51.9999C17.3333 51.9999 17.3333 49.3333 17.3333 49.3333V41.3333C17.3333 39.9999 14.6667 37.3333 14.6667 37.3333Z" fill="#FCAB40"/>
<path d="M14.6667 42.6667C16.8758 42.6667 18.6667 40.8759 18.6667 38.6667C18.6667 36.4576 16.8758 34.6667 14.6667 34.6667C12.4575 34.6667 10.6667 36.4576 10.6667 38.6667C10.6667 40.8759 12.4575 42.6667 14.6667 42.6667Z" fill="#FDD888"/>
<path d="M14.668 40.0001C13.932 40.0001 13.3347 39.4041 13.3347 38.6668V33.3894C13.2787 32.5441 13.584 30.6748 15.0907 29.5441L27.12 18.9974C27.6747 18.5108 28.5173 18.5668 29.0013 19.1214C29.4867 19.6748 29.4307 20.5174 28.8773 21.0028L16.7707 31.6134C15.9653 32.2214 16 33.3094 16 33.3201L16.0027 38.6668C16.0027 39.4041 15.4053 40.0001 14.668 40.0001Z" fill="#FCAB40"/>
<path d="M28 25.3333C30.2091 25.3333 32 23.5424 32 21.3333C32 19.1241 30.2091 17.3333 28 17.3333C25.7909 17.3333 24 19.1241 24 21.3333C24 23.5424 25.7909 25.3333 28 25.3333Z" fill="#31373D"/>
</g>
<defs>
<clipPath id="clip0">
<rect width="48" height="48" rx="8" fill="white"/>
</clipPath>
</defs>
</svg>
