<svg width="48" height="48" viewBox="0 0 48 48" fill="none" xmlns="http://www.w3.org/2000/svg">
<g clip-path="url(#clip0)">
<rect width="48" height="48" rx="8" fill="#EEEEEE"/>
<path d="M45.3333 43.3333C45.3333 44.4373 44.4373 45.3333 43.3333 45.3333C42.2293 45.3333 41.3333 44.4373 41.3333 43.3333V11.3333C41.3333 10.2279 42.2293 9.33325 43.3333 9.33325C44.4373 9.33325 45.3333 10.2279 45.3333 11.3333V43.3333Z" fill="#CCD6DD"/>
<path d="M50.5093 46.6666C50.5587 46.4479 50.592 46.2266 50.592 45.9999C50.592 43.4226 47.308 41.3333 43.2587 41.3333C39.2093 41.3333 35.9253 43.4226 35.9253 45.9999C35.9253 46.2266 35.9587 46.4479 36.008 46.6666H50.5093Z" fill="#CCD6DD"/>
<path d="M51.9253 16C52.3707 17.5 50.7306 18.6667 49.2587 18.6667H37.2587C35.7867 18.6667 34.204 17.3333 34.592 16L37.2587 6.66667C37.592 5.22133 38.4533 4 39.9253 4H46.592C48.0653 4 48.9253 5.5 49.2587 6.66667L51.9253 16Z" fill="#FCAB40"/>
<path d="M42.6747 42.8013C42.6747 44.4213 41.3187 45.7333 39.6467 45.7333H12.3947C10.7227 45.7333 9.36667 44.4213 9.36667 42.8013V29.6013C9.36667 27.9813 10.7227 26.668 12.3947 26.668H39.6467C41.3187 26.668 42.6747 27.9813 42.6747 29.6013V42.8013Z" fill="#5D9040"/>
<path d="M40.6667 45.7333C40.6667 47.3533 39.3533 48.6666 37.7333 48.6666H12.8C11.18 48.6666 9.86667 47.3533 9.86667 45.7333V44.2666C9.86667 42.6466 11.18 41.3333 12.8 41.3333H37.7333C39.3533 41.3333 40.6667 42.6466 40.6667 44.2666V45.7333Z" fill="#3F7123"/>
<path d="M26.0213 37.6666C35.2143 37.6666 42.6667 34.0102 42.6667 29.4999C42.6667 24.9896 35.2143 21.3333 26.0213 21.3333C16.8284 21.3333 9.37601 24.9896 9.37601 29.4999C9.37601 34.0102 16.8284 37.6666 26.0213 37.6666Z" fill="#5D9040"/>
<path d="M12.8 35.468C12.8 37.8973 10.8293 39.868 8.4 39.868C5.97067 39.868 4 37.8973 4 35.468C4 33.036 5.97067 31.0667 8.4 31.0667C10.8307 31.0667 12.8 33.036 12.8 35.468Z" fill="#78B159"/>
<path d="M12.8 48.6667C12.8 50.2867 11.4867 51.6 9.86665 51.6C8.24665 51.6 6.93332 50.2867 6.93332 48.6667V35.468C6.93332 33.848 8.24665 32.5347 9.86665 32.5347C11.4867 32.5347 12.8 33.848 12.8 35.468V48.6667ZM39.2 35.468C39.2 37.8973 41.1693 39.868 43.6 39.868C46.028 39.868 48 37.8973 48 35.468C48 33.0373 46.028 31.0667 43.6 31.0667C41.1707 31.0667 39.2 33.036 39.2 35.468Z" fill="#78B159"/>
<path d="M39.2 48.6667C39.2 50.2867 40.512 51.6 42.132 51.6C43.752 51.6 45.0653 50.2867 45.0653 48.6667V35.468C45.0653 33.848 43.752 32.5347 42.132 32.5347C40.512 32.5347 39.2 33.848 39.2 35.468V48.6667ZM26 41.3333C26 42.9533 24.6867 44.2667 23.0667 44.2667H15.7333C14.1133 44.2667 12.8 42.9533 12.8 41.3333C12.8 39.7133 14.1133 38.4 15.7333 38.4H23.0667C24.6867 38.4 26 39.7133 26 41.3333ZM39.2 41.3333C39.2 42.9533 37.8867 44.2667 36.2667 44.2667H28.9333C27.3133 44.2667 26 42.9533 26 41.3333C26 39.7133 27.3133 38.4 28.9333 38.4H36.2667C37.8867 38.4 39.2 39.7133 39.2 41.3333Z" fill="#78B159"/>
<path d="M12 41.3333H40V45.3332H12V41.3333Z" fill="#78B159"/>
</g>
<defs>
<clipPath id="clip0">
<rect width="48" height="48" rx="8" fill="white"/>
</clipPath>
</defs>
</svg>
