<svg width="48" height="48" viewBox="0 0 48 48" fill="none" xmlns="http://www.w3.org/2000/svg">
<g clip-path="url(#clip0)">
<rect width="48" height="48" rx="8" fill="#EEEEEE"/>
<path d="M49.3333 21.3333C49.3333 22.8053 48.1387 24 46.6667 24H38.6667C37.1947 24 36 22.8053 36 21.3333V18.6667C36 17.1947 37.1947 16 38.6667 16H46.6667C48.1387 16 49.3333 17.1947 49.3333 18.6667V21.3333ZM20 21.3333C20 22.8053 18.8053 24 17.3333 24H9.33332C7.86132 24 6.66666 22.8053 6.66666 21.3333V18.6667C6.66666 17.1947 7.86132 16 9.33332 16H17.3333C18.8053 16 20 17.1947 20 18.6667V21.3333Z" fill="#DAC8B1"/>
<path d="M52 49.3334C52 50.8054 50.8053 52.0001 49.3333 52.0001H6.66667C5.19467 52.0001 4 50.8054 4 49.3334V21.3334C4 19.8614 5.19467 18.6667 6.66667 18.6667H49.3333C50.8053 18.6667 52 19.8614 52 21.3334V49.3334Z" fill="#F1DCC1"/>
<path d="M33.3333 16V13.3333C33.3333 12.3493 32.7947 11.4987 32 11.036V10.6667C32 9.19467 30.8053 8 29.3333 8H26.6667C25.1947 8 24 9.19467 24 10.6667V11.036C23.2067 11.4987 22.6667 12.3493 22.6667 13.3333V16H21.3333V52H34.6667V16H33.3333Z" fill="#DAC8B1"/>
<path d="M22.6667 13.3333H25.3333V15.9999H22.6667V13.3333ZM30.6667 13.3333H33.3333V15.9999H30.6667V13.3333ZM26.6667 13.3333H29.3333V15.9999H26.6667V13.3333Z" fill="#55ACEE"/>
<path d="M24 24H26.6667V42.6667H24V24ZM29.3333 24H32V42.6667H29.3333V24Z" fill="#3B88C3"/>
<path d="M36 26.6667H38.6667V42.6668H36V26.6667ZM41.3333 26.6667H44V42.6668H41.3333V26.6667ZM46.6667 26.6667H49.3333V42.6668H46.6667V26.6667ZM6.66666 26.6667H9.33332V42.6668H6.66666V26.6667ZM12 26.6667H14.6667V42.6668H12V26.6667ZM17.3333 26.6667H20V42.6668H17.3333V26.6667ZM6.66666 44.0001H9.33332V46.6668H6.66666V44.0001ZM12 44.0001H14.6667V46.6668H12V44.0001ZM17.3333 44.0001H20V46.6668H17.3333V44.0001Z" fill="#55ACEE"/>
<path d="M24 44H26.6667V46.6667H24V44ZM29.3333 44H32V46.6667H29.3333V44Z" fill="#3B88C3"/>
<path d="M36 44H38.6667V46.6667H36V44ZM41.3333 44H44V46.6667H41.3333V44ZM46.6667 44H49.3333V46.6667H46.6667V44Z" fill="#55ACEE"/>
</g>
<defs>
<clipPath id="clip0">
<rect width="48" height="48" rx="8" fill="white"/>
</clipPath>
</defs>
</svg>
